<mxfile host="app.diagrams.net" modified="2022-11-24T15:11:42.133Z" agent="5.0 (Windows NT 10.0; Win64; x64) AppleWebKit/537.36 (KHTML, like Gecko) Chrome/107.0.0.0 Safari/537.36" etag="1apglj4DThi4rt6FoU43" version="20.6.0" type="github">
  <diagram id="kgpKYQtTHZ0yAKxKKP6v" name="Page-1">
    <mxGraphModel dx="1038" dy="521" grid="1" gridSize="10" guides="1" tooltips="1" connect="1" arrows="1" fold="1" page="1" pageScale="1" pageWidth="850" pageHeight="1100" math="0" shadow="0">
      <root>
        <mxCell id="0" />
        <mxCell id="1" parent="0" />
        <mxCell id="3nuBFxr9cyL0pnOWT2aG-1" value=":User" style="shape=umlLifeline;perimeter=lifelinePerimeter;container=1;collapsible=0;recursiveResize=0;rounded=0;shadow=0;strokeWidth=1;" parent="1" vertex="1">
          <mxGeometry x="40" y="70" width="80" height="300" as="geometry" />
        </mxCell>
        <mxCell id="jhW9YFFk4so4ZFe3d6Nj-3" value="" style="rounded=0;whiteSpace=wrap;html=1;" vertex="1" parent="3nuBFxr9cyL0pnOWT2aG-1">
          <mxGeometry x="30" y="70" width="20" height="150" as="geometry" />
        </mxCell>
        <mxCell id="3nuBFxr9cyL0pnOWT2aG-5" value=":Object (Rectange, Oval, TextArea)" style="shape=umlLifeline;perimeter=lifelinePerimeter;container=1;collapsible=0;recursiveResize=0;rounded=0;shadow=0;strokeWidth=1;" parent="1" vertex="1">
          <mxGeometry x="170" y="70" width="200" height="300" as="geometry" />
        </mxCell>
        <mxCell id="jhW9YFFk4so4ZFe3d6Nj-5" value="" style="rounded=0;whiteSpace=wrap;html=1;" vertex="1" parent="3nuBFxr9cyL0pnOWT2aG-5">
          <mxGeometry x="90" y="70" width="20" height="90" as="geometry" />
        </mxCell>
        <mxCell id="jhW9YFFk4so4ZFe3d6Nj-1" value=":GraphicalObject" style="shape=umlLifeline;perimeter=lifelinePerimeter;container=1;collapsible=0;recursiveResize=0;rounded=0;shadow=0;strokeWidth=1;" vertex="1" parent="1">
          <mxGeometry x="380" y="140" width="120" height="220" as="geometry" />
        </mxCell>
        <mxCell id="jhW9YFFk4so4ZFe3d6Nj-11" value="" style="rounded=0;whiteSpace=wrap;html=1;" vertex="1" parent="jhW9YFFk4so4ZFe3d6Nj-1">
          <mxGeometry x="55" y="40" width="10" height="50" as="geometry" />
        </mxCell>
        <mxCell id="jhW9YFFk4so4ZFe3d6Nj-2" value=":SelectedObject" style="shape=umlLifeline;perimeter=lifelinePerimeter;container=1;collapsible=0;recursiveResize=0;rounded=0;shadow=0;strokeWidth=1;" vertex="1" parent="1">
          <mxGeometry x="520" y="210" width="140" height="140" as="geometry" />
        </mxCell>
        <mxCell id="jhW9YFFk4so4ZFe3d6Nj-13" value="" style="swimlane;startSize=0;" vertex="1" parent="jhW9YFFk4so4ZFe3d6Nj-2">
          <mxGeometry x="65" y="40" width="10" height="40" as="geometry" />
        </mxCell>
        <mxCell id="jhW9YFFk4so4ZFe3d6Nj-16" value="" style="shape=sumEllipse;perimeter=ellipsePerimeter;whiteSpace=wrap;html=1;backgroundOutline=1;" vertex="1" parent="jhW9YFFk4so4ZFe3d6Nj-2">
          <mxGeometry x="50" y="110" width="40" height="30" as="geometry" />
        </mxCell>
        <mxCell id="jhW9YFFk4so4ZFe3d6Nj-4" value="" style="endArrow=classic;html=1;rounded=0;exitX=0.5;exitY=0;exitDx=0;exitDy=0;" edge="1" parent="1" source="jhW9YFFk4so4ZFe3d6Nj-3" target="3nuBFxr9cyL0pnOWT2aG-5">
          <mxGeometry width="50" height="50" relative="1" as="geometry">
            <mxPoint x="400" y="310" as="sourcePoint" />
            <mxPoint x="450" y="260" as="targetPoint" />
          </mxGeometry>
        </mxCell>
        <mxCell id="jhW9YFFk4so4ZFe3d6Nj-6" value="draw objects" style="edgeLabel;html=1;align=center;verticalAlign=middle;resizable=0;points=[];" vertex="1" connectable="0" parent="jhW9YFFk4so4ZFe3d6Nj-4">
          <mxGeometry x="-0.1515" y="-2" relative="1" as="geometry">
            <mxPoint as="offset" />
          </mxGeometry>
        </mxCell>
        <mxCell id="jhW9YFFk4so4ZFe3d6Nj-7" value="" style="endArrow=classic;html=1;rounded=0;entryX=-0.023;entryY=0.07;entryDx=0;entryDy=0;entryPerimeter=0;exitX=1;exitY=0.25;exitDx=0;exitDy=0;" edge="1" parent="1" source="jhW9YFFk4so4ZFe3d6Nj-5" target="jhW9YFFk4so4ZFe3d6Nj-1">
          <mxGeometry width="50" height="50" relative="1" as="geometry">
            <mxPoint x="400" y="310" as="sourcePoint" />
            <mxPoint x="450" y="260" as="targetPoint" />
          </mxGeometry>
        </mxCell>
        <mxCell id="jhW9YFFk4so4ZFe3d6Nj-8" value="merge obj" style="edgeLabel;html=1;align=center;verticalAlign=middle;resizable=0;points=[];" vertex="1" connectable="0" parent="jhW9YFFk4so4ZFe3d6Nj-7">
          <mxGeometry x="0.2907" y="-4" relative="1" as="geometry">
            <mxPoint x="-14" y="-4" as="offset" />
          </mxGeometry>
        </mxCell>
        <mxCell id="jhW9YFFk4so4ZFe3d6Nj-9" value="" style="endArrow=classic;html=1;rounded=0;exitX=1;exitY=0.75;exitDx=0;exitDy=0;" edge="1" parent="1">
          <mxGeometry width="50" height="50" relative="1" as="geometry">
            <mxPoint x="90" y="212.5" as="sourcePoint" />
            <mxPoint x="439.5" y="212.5" as="targetPoint" />
          </mxGeometry>
        </mxCell>
        <mxCell id="jhW9YFFk4so4ZFe3d6Nj-10" value="select Object" style="edgeLabel;html=1;align=center;verticalAlign=middle;resizable=0;points=[];" vertex="1" connectable="0" parent="jhW9YFFk4so4ZFe3d6Nj-9">
          <mxGeometry x="0.4787" y="-4" relative="1" as="geometry">
            <mxPoint as="offset" />
          </mxGeometry>
        </mxCell>
        <mxCell id="jhW9YFFk4so4ZFe3d6Nj-12" value="" style="endArrow=classic;html=1;rounded=0;exitX=0.75;exitY=1;exitDx=0;exitDy=0;entryX=-0.031;entryY=0.147;entryDx=0;entryDy=0;entryPerimeter=0;" edge="1" parent="1" source="jhW9YFFk4so4ZFe3d6Nj-11" target="jhW9YFFk4so4ZFe3d6Nj-2">
          <mxGeometry width="50" height="50" relative="1" as="geometry">
            <mxPoint x="400" y="310" as="sourcePoint" />
            <mxPoint x="450" y="260" as="targetPoint" />
          </mxGeometry>
        </mxCell>
        <mxCell id="jhW9YFFk4so4ZFe3d6Nj-14" value="" style="endArrow=classic;html=1;rounded=0;entryX=0;entryY=1;entryDx=0;entryDy=0;" edge="1" parent="1" target="jhW9YFFk4so4ZFe3d6Nj-13">
          <mxGeometry width="50" height="50" relative="1" as="geometry">
            <mxPoint x="90" y="290" as="sourcePoint" />
            <mxPoint x="450" y="300" as="targetPoint" />
          </mxGeometry>
        </mxCell>
        <mxCell id="jhW9YFFk4so4ZFe3d6Nj-15" value="deleteObject" style="edgeLabel;html=1;align=center;verticalAlign=middle;resizable=0;points=[];" vertex="1" connectable="0" parent="jhW9YFFk4so4ZFe3d6Nj-14">
          <mxGeometry x="-0.1297" relative="1" as="geometry">
            <mxPoint as="offset" />
          </mxGeometry>
        </mxCell>
      </root>
    </mxGraphModel>
  </diagram>
</mxfile>
